<svg xmlns="http://www.w3.org/2000/svg" viewBox="125.24 75.98 133.36 257.93" role="img" aria-label="BioPractors">
<path d="M176.78,129.88C176.78,129.88 181.40,133.12 180.94,140.06C180.94,140.06 188.81,107.67 208.55,78.98C208.55,78.98 188.81,101.19 176.78,129.88" fill="#539040"/>
<path d="M194.98,307.05C194.61,308.43 194.37,309.74 194.31,310.97C194.31,310.97 194.48,309.54 194.98,307.05" fill="#A0BFE5"/>
<path d="M233.59,162.68C219.85,146.65 208.62,127.76 207.82,126.41C207.82,126.41 212.20,140.27 228.24,162.27C244.28,184.28 247.78,208.25 243.67,226.09C239.55,243.92 215.70,267.57 215.70,267.57C220.02,257.49 219.22,241.02 218.99,235.49C218.81,231.22 222.75,224.98 225.38,221.76C226.20,220.75 227.14,219.86 228.11,219.00C233.37,214.32 234.75,204.05 233.59,207.52C232.36,211.22 229.22,214.24 226.60,216.98C225.39,218.24 217.59,229.89 217.55,229.94L215.22,215.58C214.78,212.88 214.90,210.12 215.67,207.51C216.49,204.73 218.10,201.25 221.25,197.65C228.45,189.42 228.04,182.84 227.63,185.51C227.52,186.18 227.30,186.85 227.04,187.48C226.32,189.13 225.21,190.58 223.86,191.77C217.94,196.98 214.46,204.85 214.46,204.85C213.59,200.86 213.79,194.20 214.37,187.47C214.10,187.32 213.89,187.04 213.87,186.64C213.71,183.96 213.61,181.26 213.73,178.57C210.50,194.33 211.08,207.93 211.69,214.51C211.90,216.72 212.29,218.91 212.84,221.06C214.89,229.12 219.19,255.70 208.91,272.30C199.93,286.80 196.31,300.55 194.98,307.05C198.54,294.08 214.67,275.59 214.67,275.59C236.47,255.44 240.79,248.45 248.19,230.55C255.60,212.66 247.64,179.08 233.59,162.68" fill="#539040"/>
<path d="M199.49,107.13C199.61,107.11 200.07,104.78 201.53,106.51C201.53,106.51 203.42,106.82 202.88,109.29C202.34,111.76 202.46,114.88 201.76,115.46C201.07,116.04 199.95,114.42 199.95,114.42C199.95,114.42 197.87,115.15 198.26,112.99C198.26,112.99 198.41,111.60 197.41,112.45C196.40,113.30 197.48,107.55 199.49,107.13" fill="#17284E"/>
<path d="M196.06,118.97C196.06,118.97 196.06,117.43 195.05,118.51C194.26,119.37 193.26,121.88 193.45,123.30C193.55,124.01 194.53,124.23 194.89,123.62C194.89,123.61 194.90,123.60 194.90,123.60C195.25,122.98 195.71,124.02 195.48,124.56C195.25,125.10 194.94,127.11 196.29,126.76C197.64,126.41 199.37,127.49 199.37,127.49C199.37,127.49 201.19,129.03 201.53,126.95C201.82,125.20 201.87,120.47 201.88,118.99C201.88,118.71 201.73,118.45 201.49,118.31C200.45,117.70 197.62,116.21 197.03,117.62C196.29,119.36 196.79,119.28 196.06,118.97" fill="#17284E"/>
<path d="M193.20,131.49C193.20,131.49 192.82,129.95 191.93,131.02C191.04,132.10 190.00,135.54 190.89,137.39C190.89,137.39 191.66,138.16 192.16,137.19C192.66,136.23 193.51,136.04 193.67,137.43C193.82,138.81 193.40,140.13 194.59,139.66C195.79,139.20 198.10,139.82 199.68,140.67C201.26,141.51 201.15,139.55 201.15,139.55L201.15,132.57C201.15,132.57 201.40,131.01 199.93,130.55C199.46,130.41 198.99,130.29 198.53,130.13C197.70,129.85 196.46,129.47 195.62,129.49C195.19,129.50 194.85,129.82 194.79,130.24C194.74,130.56 194.71,130.99 194.75,131.45C194.82,132.41 193.20,132.18 193.20,131.49" fill="#17284E"/>
<path d="M192.10,176.01C192.10,176.01 191.36,174.06 190.37,175.60C189.38,177.15 188.54,181.78 189.99,184.05C189.99,184.05 191.11,184.94 191.61,183.61C192.12,182.28 193.20,181.89 193.61,183.68C194.02,185.46 193.67,187.24 195.16,186.45C196.65,185.67 199.75,186.11 201.95,186.98C204.13,187.84 203.68,185.30 203.68,185.30L202.62,176.20C202.62,176.20 202.70,174.13 200.72,173.76C200.09,173.65 199.45,173.57 198.82,173.43C197.71,173.18 196.03,172.89 194.93,173.04C194.38,173.11 193.98,173.59 193.97,174.15C193.96,174.57 193.98,175.13 194.10,175.72C194.35,176.97 192.20,176.92 192.10,176.01" fill="#17284E"/>
<path d="M194.75,191.46C194.75,191.46 194.09,189.73 193.22,191.10C192.34,192.46 191.61,196.56 192.88,198.58C192.88,198.58 193.87,199.36 194.32,198.18C194.77,197.00 195.72,196.67 196.09,198.25C196.46,199.83 196.14,201.40 197.46,200.70C198.78,200.00 201.53,200.40 203.47,201.17C205.41,201.93 205.01,199.68 205.01,199.68L204.06,191.62C204.06,191.62 204.14,189.79 202.38,189.47C201.82,189.36 201.26,189.29 200.71,189.17C199.72,188.95 198.23,188.69 197.26,188.82C196.77,188.89 196.42,189.31 196.41,189.81C196.40,190.18 196.42,190.68 196.52,191.20C196.74,192.31 194.84,192.26 194.75,191.46" fill="#17284E"/>
<path d="M196.21,205.85C196.21,205.85 195.51,204.01 194.58,205.47C193.64,206.92 192.86,211.30 194.22,213.45C194.22,213.45 195.28,214.28 195.76,213.03C196.23,211.77 197.25,211.41 197.64,213.09C198.03,214.78 197.70,216.45 199.10,215.71C200.51,214.97 203.44,215.39 205.51,216.21C207.58,217.02 207.15,214.62 207.15,214.62L206.15,206.03C206.15,206.03 206.23,204.07 204.35,203.73C203.76,203.62 203.16,203.54 202.57,203.41C201.51,203.18 199.93,202.90 198.89,203.04C198.37,203.11 197.99,203.57 197.98,204.09C197.97,204.49 197.99,205.02 198.10,205.58C198.34,206.76 196.31,206.71 196.21,205.85" fill="#17284E"/>
<path d="M191.76,144.99C191.76,144.99 191.23,143.20 190.24,144.52C189.25,145.83 188.21,149.92 189.35,152.05C189.35,152.05 190.30,152.92 190.84,151.76C191.37,150.60 192.36,150.33 192.62,151.95C192.87,153.57 192.44,155.14 193.82,154.53C195.20,153.92 197.95,154.53 199.86,155.44C201.76,156.36 201.52,154.05 201.52,154.05L201.16,145.84C201.16,145.84 201.37,144.00 199.62,143.54C199.06,143.40 198.50,143.28 197.95,143.12C196.96,142.83 195.48,142.46 194.49,142.52C193.99,142.55 193.60,142.95 193.56,143.45C193.52,143.82 193.50,144.33 193.57,144.87C193.71,146.00 191.80,145.81 191.76,144.99" fill="#17284E"/>
<path d="M191.52,159.95C191.52,159.95 190.94,158.03 189.89,159.44C188.83,160.84 187.71,165.22 188.94,167.50C188.94,167.50 189.95,168.43 190.53,167.19C191.10,165.95 192.16,165.66 192.43,167.40C192.71,169.14 192.24,170.81 193.72,170.16C195.20,169.51 198.15,170.16 200.19,171.14C202.23,172.11 201.97,169.65 201.97,169.65L201.58,160.86C201.58,160.86 201.80,158.88 199.93,158.39C199.33,158.24 198.73,158.12 198.14,157.94C197.09,157.63 195.50,157.23 194.44,157.29C193.91,157.33 193.49,157.76 193.44,158.29C193.40,158.69 193.38,159.23 193.46,159.81C193.61,161.02 191.56,160.82 191.52,159.95" fill="#17284E"/>
<path d="M202.73,221.12C202.73,221.12 201.46,221.32 201.73,223.30C201.82,223.92 201.41,224.52 200.80,224.66C200.79,224.66 200.78,224.66 200.78,224.67C199.85,224.87 201.08,230.53 202.73,231.25C204.37,231.97 204.63,233.72 204.53,233.56C204.43,233.41 204.89,234.51 206.28,233.57C207.67,232.64 208.08,232.43 209.05,232.28C210.03,232.12 209.46,229.70 209.46,229.70L208.14,221.80C208.04,221.21 207.55,220.77 206.95,220.75C205.75,220.71 203.79,220.71 202.73,221.12" fill="#17284E"/>
<path d="M207.13,237.74C207.13,237.74 205.71,238.78 206.32,240.13C206.32,240.13 205.08,240.50 206.40,244.76C207.05,246.84 207.36,247.88 207.36,247.88C207.35,247.88 207.51,249.70 208.98,248.61C210.42,247.55 210.41,247.61 210.41,247.53C210.41,247.46 211.21,238.51 209.71,237.97C208.21,237.43 207.13,237.74 207.13,237.74" fill="#17284E"/>
<path d="M207.49,251.75C207.49,251.75 207.47,251.10 208.53,251.02C209.59,250.95 209.57,252.93 209.57,252.93C209.57,252.93 208.18,259.51 206.53,261.20C206.53,261.20 207.91,253.57 207.45,252.14" fill="#17284E"/>
<path d="M141.20,323.05C144.28,316.19 151.48,295.54 151.63,292.15C151.79,288.76 154.15,288.65 154.15,288.65C153.59,287.52 154.67,286.54 154.67,286.54C155.96,285.52 155.85,283.05 155.85,283.05C155.03,282.43 155.49,281.20 155.49,281.20C153.48,279.96 153.59,277.08 153.59,277.08C152.35,270.66 145.44,254.22 145.44,254.22C142.12,252.48 142.85,249.63 142.85,249.63L134.15,233.90C133.95,229.83 132.97,224.74 132.97,224.74C128.24,214.00 131.89,212.46 131.89,212.46C131.12,209.99 133.02,208.34 133.02,208.34C134.82,204.49 140.07,179.60 139.86,178.06C139.65,176.52 141.50,175.95 141.50,175.95C140.94,174.36 141.92,173.17 141.92,173.17C145.98,169.63 155.31,156.70 155.46,155.08C155.62,153.46 157.55,153.02 157.55,153.02C157.03,152.40 157.55,151.58 157.55,151.58C157.55,151.58 166.90,141.50 168.76,135.70C170.61,129.89 172.77,133.07 172.77,133.07C173.17,133.07 181.83,133.87 177.66,148.08C177.51,148.59 177.31,149.09 177.07,149.57C175.94,151.82 172.40,158.49 168.09,162.38C168.09,162.38 166.03,155.44 161.51,154.00" fill="none" stroke="#6792CC" stroke-width="2.0" stroke-linecap="round" stroke-linejoin="round"/>
<path d="M168.09,162.38C168.09,162.38 164.05,173.03 160.23,177.12C160.23,177.12 160.23,178.70 159.15,178.62C159.15,178.62 159.77,181.94 157.61,182.56C157.61,182.56 152.32,173.32 141.51,175.95" fill="none" stroke="#6792CC" stroke-width="2.0" stroke-linecap="round" stroke-linejoin="round"/>
<path d="M157.61,182.56C157.61,182.56 158.73,185.84 156.11,203.01C156.11,203.01 155.91,204.54 155.01,204.77" fill="none" stroke="#6792CC" stroke-width="2.0" stroke-linecap="round" stroke-linejoin="round"/>
<path d="M167.83,231.84L160.63,222.33L157.85,213.59L157.85,212.76C157.85,211.42 157.44,210.12 156.68,209.02L156.57,208.86C157.03,206.49 155.01,204.77 155.01,204.77" fill="none" stroke="#6792CC" stroke-width="2.0" stroke-linecap="round" stroke-linejoin="round"/>
<path d="M131.89,212.46C131.89,212.46 144.85,207.70 151.40,208.93C151.40,208.93 154.87,210.63 156.57,208.86" fill="none" stroke="#6792CC" stroke-width="2.0" stroke-linecap="round" stroke-linejoin="round"/>
<path d="M182.69,330.92C183.00,330.81 191.84,301.71 191.84,301.71L191.84,300.58C191.84,300.58 198.11,295.95 195.85,285.57L197.60,281.76L196.78,275.59L198.32,273.74C198.32,273.74 209.21,252.46 192.20,229.47C192.20,229.47 191.51,227.73 190.17,227.63C190.17,227.63 190.71,227.11 187.68,222.53C187.68,222.53 185.39,218.03 185.33,210.59C185.33,210.59 185.41,208.96 184.54,208.39C184.54,208.39 185.52,207.67 185.11,205.46C184.76,203.59 181.86,190.01 180.99,185.91C180.64,184.31 179.95,182.80 178.87,181.56C177.29,179.77 174.55,178.05 170.09,178.98C170.09,178.98 163.41,179.42 163.97,188.79C164.54,198.16 164.54,207.21 164.54,207.21C164.54,207.21 164.85,211.09 166.44,209.69C168.04,208.29 169.01,208.19 169.01,208.19C169.01,208.19 168.76,205.62 173.95,205.56C173.95,205.56 177.83,205.36 178.80,207.06C178.80,207.06 182.38,206.80 184.33,208.24" fill="none" stroke="#6792CC" stroke-width="2.0" stroke-linecap="round" stroke-linejoin="round"/>
<path d="M169.01,208.19C169.01,208.19 169.30,210.43 173.25,209.79C173.61,209.73 173.96,209.69 174.32,209.67C175.55,209.59 178.52,209.17 178.80,207.06" fill="none" stroke="#6792CC" stroke-width="2.0" stroke-linecap="round" stroke-linejoin="round"/>
<path d="M165.87,209.99C165.87,209.99 164.72,211.32 166.08,213.12C166.08,213.12 169.89,225.72 167.83,231.84C167.83,231.84 167.82,233.92 168.44,234.61C168.44,234.61 166.93,235.51 167.16,236.34C167.39,237.16 167.60,253.51 164.98,258.75L168.83,270.86C168.83,270.86 175.70,273.25 178.40,275.95C181.10,278.65 193.72,276.93 196.78,275.59" fill="none" stroke="#6792CC" stroke-width="2.0" stroke-linecap="round" stroke-linejoin="round"/>
<path d="M168.83,270.86C168.83,270.86 155.49,274.90 155.57,281.07" fill="none" stroke="#6792CC" stroke-width="2.0" stroke-linecap="round" stroke-linejoin="round"/>
<path d="M155.85,283.05C155.85,283.05 156.42,280.27 159.81,280.58C163.20,280.89 172.23,283.05 172.23,283.05C172.23,283.05 173.31,283.74 172.23,285.13C171.15,286.52 170.38,290.07 170.76,290.99C171.15,291.92 170.07,292.84 168.83,292.61C168.83,292.61 158.08,286.58 154.49,288.69" fill="none" stroke="#6792CC" stroke-width="2.0" stroke-linecap="round" stroke-linejoin="round"/>
<path d="M195.85,285.57C195.85,285.57 188.65,274.80 178.40,282.08C178.40,282.08 169.91,288.60 175.77,298.28C175.77,298.28 181.46,307.05 191.84,300.58" fill="none" stroke="#6792CC" stroke-width="2.0" stroke-linecap="round" stroke-linejoin="round"/>
<path d="M190.97,298.11C188.18,300.81 185.16,300.51 183.00,299.70C180.34,298.71 178.37,296.37 177.72,293.61C176.82,289.84 178.58,287.12 180.42,285.40C182.54,283.41 185.47,282.41 188.32,283.02C190.11,283.40 192.01,284.42 193.14,286.86C193.96,288.59 194.09,290.57 193.73,292.45C193.40,294.21 192.65,296.49 190.97,298.11" fill="none" stroke="#6792CC" stroke-width="2.0" stroke-linecap="round" stroke-linejoin="round"/>
<path d="M184.62,286.08C182.97,286.53 181.67,287.78 180.98,289.34C180.12,291.26 179.56,294.17 182.43,296.31C185.08,298.29 187.26,297.42 188.66,296.30C190.00,295.22 190.89,293.64 191.04,291.92C191.16,290.48 190.84,288.63 189.06,287.01C189.06,287.01 187.35,285.33 184.62,286.08" fill="none" stroke="#6792CC" stroke-width="2.0" stroke-linecap="round" stroke-linejoin="round"/>
<path d="M168.44,234.62C168.44,234.62 186.20,240.72 189.98,226.74" fill="none" stroke="#6792CC" stroke-width="2.0" stroke-linecap="round" stroke-linejoin="round"/>
<path d="M175.30,179.20C176.42,171.15 173.96,170.50 173.96,170.50" fill="none" stroke="#6792CC" stroke-width="2.0" stroke-linecap="round" stroke-linejoin="round"/>
<path d="M169.32,292.65C169.32,292.65 176.78,296.26 173.71,302.96L162.59,329.37" fill="none" stroke="#6792CC" stroke-width="2.0" stroke-linecap="round" stroke-linejoin="round"/>
<path d="M132.97,224.74C132.97,224.74 155.49,268.47 156.57,273.64C156.57,273.64 157.95,275.26 159.77,275.10" fill="none" stroke="#6792CC" stroke-width="2.0" stroke-linecap="round" stroke-linejoin="round"/>
<path d="M178.19,146.09C178.19,146.09 180.22,147.36 178.83,151.73C178.83,151.73 184.18,161.07 172.69,171.72C172.69,171.72 171.84,176.22 167.85,179.70" fill="none" stroke="#6792CC" stroke-width="2.0" stroke-linecap="round" stroke-linejoin="round"/>
<path d="M142.39,243.31C142.39,243.31 145.68,221.58 161.42,223.74" fill="none" stroke="#6792CC" stroke-width="2.0" stroke-linecap="round" stroke-linejoin="round"/>
<path d="M187.46,235.43C186.41,236.43 185.12,237.16 183.72,237.56C183.31,237.68 183.49,238.33 183.90,238.21C185.41,237.78 186.80,236.99 187.94,235.91C188.25,235.61 187.78,235.13 187.46,235.43" fill="#365D87" stroke="#6792CC" stroke-width="1.0" stroke-linecap="round" stroke-linejoin="round"/>
<path d="M169.08,311.93C168.85,312.56 168.61,313.19 168.34,313.80C168.34,313.81 168.34,313.81 168.34,313.81L168.34,313.81C168.30,313.89 168.27,313.97 168.24,314.05C168.20,314.13 168.16,314.20 168.11,314.26C167.89,314.87 167.63,315.47 167.36,316.05C167.27,316.24 167.20,316.43 167.11,316.62C167.09,316.64 167.08,316.66 167.06,316.69C167.17,316.94 167.18,317.24 167.00,317.54C166.77,317.96 166.55,318.38 166.35,318.80C166.29,319.13 166.20,319.45 166.11,319.77C167.06,317.45 168.25,314.49 169.36,311.60C169.28,311.74 169.19,311.85 169.08,311.93" fill="#231F20" stroke="#6792CC" stroke-width="1.0" stroke-linecap="round" stroke-linejoin="round"/>
<path d="M167.56,232.21C167.91,231.96 167.57,231.37 167.22,231.63C165.42,232.90 164.29,234.88 163.84,237.02C163.35,239.40 163.73,241.86 164.57,244.12C165.10,245.51 165.78,246.83 166.54,248.10C166.76,248.48 167.34,248.14 167.12,247.76C165.56,245.15 164.25,242.21 164.29,239.10C164.32,236.49 165.37,233.76 167.56,232.21" fill="#6792CC"/>
<path d="M185.33,207.84L184.79,203.88C184.79,203.88 181.94,186.80 179.62,182.56C177.29,178.32 172.92,178.73 168.44,179.70C163.96,180.66 164.39,186.26 164.39,186.26C165.27,180.24 174.39,180.86 174.39,180.86C174.35,180.85 174.32,180.84 174.29,180.82C174.58,180.91 174.85,181.04 175.12,181.19C175.56,181.44 175.99,181.73 176.40,182.04C176.57,182.18 176.74,182.32 176.91,182.47C179.09,185.18 181.94,191.73 182.85,207.06L185.33,207.84" fill="#6792CC"/>
<path d="M152.56,180.13C152.64,180.24 156.23,182.87 155.01,184.45C155.01,184.45 154.78,192.27 154.67,192.08C154.56,191.89 155.45,185.49 155.45,185.49C155.45,185.49 155.72,198.91 153.60,201.61C151.48,204.31 150.01,204.82 149.01,204.77L147.93,203.69C147.93,203.69 148.01,204.77 147.35,205.19C146.73,205.59 153.53,204.42 154.67,203.03C154.73,202.97 154.77,202.91 154.80,202.84C155.45,201.34 157.38,183.75 156.96,183.37C156.53,182.98 152.56,180.13 152.56,180.13" fill="#6792CC"/>
<path d="M164.03,227.01C163.70,226.73 163.37,226.45 163.03,226.17C162.92,226.08 162.81,225.98 162.70,225.88C162.79,225.77 162.81,225.60 162.69,225.45C162.54,225.26 162.35,225.11 162.16,224.98C161.77,224.67 161.38,224.37 160.99,224.06C160.85,223.94 160.66,223.92 160.52,224.06C160.48,224.10 160.45,224.15 160.44,224.20C160.26,224.14 160.06,224.10 159.87,224.10C159.86,224.10 159.85,224.11 159.83,224.11C159.73,224.07 159.62,224.04 159.51,224.00C159.48,223.99 159.44,223.98 159.41,223.97C159.40,223.96 159.39,223.96 159.38,223.96C159.38,223.96 159.38,223.96 159.38,223.96C159.35,223.96 159.32,223.95 159.29,223.95C159.17,223.94 159.08,224.00 159.03,224.07C158.06,223.79 157.03,223.74 156.03,223.92C155.60,223.99 155.78,224.64 156.21,224.56C157.56,224.32 158.98,224.58 160.16,225.28C160.42,225.44 160.67,225.64 160.94,225.80C161.22,225.96 161.52,225.99 161.81,226.11C162.14,226.23 162.41,226.52 162.67,226.74C162.96,226.99 163.26,227.24 163.55,227.48C163.88,227.76 164.36,227.29 164.03,227.01" fill="#6792CC"/>
<path d="M164.17,239.83C164.17,239.83 164.32,236.89 165.52,236.69C165.52,236.69 164.47,244.89 166.52,246.89L167.44,234.92L167.83,231.99L165.67,233.09L164.00,238.51" fill="#6792CC"/>
<path d="M192.62,252.36C192.23,249.89 191.64,248.50 191.64,248.50C192.04,249.71 192.37,251.03 192.62,252.36" fill="#6792CC"/>
<path d="M191.86,235.81C191.71,235.58 191.40,235.52 191.18,235.69L190.40,236.26C190.40,236.26 190.45,230.04 189.32,229.73L184.50,234.18C184.50,234.18 188.19,232.25 188.96,235.69C189.73,239.14 191.38,245.62 191.33,245.41C191.28,245.21 190.71,238.93 190.71,238.93C190.71,238.93 199.30,247.67 193.59,265.00C193.59,265.00 193.80,258.44 192.63,252.36C193.32,256.68 193.40,264.30 188.70,273.64C186.25,274.13 183.72,274.21 181.24,273.83C180.81,273.77 180.63,274.42 181.06,274.48C183.82,274.90 186.62,274.81 189.34,274.20C190.85,274.25 193.84,274.16 194.57,272.71C194.57,272.71 195.13,271.89 195.23,270.25C195.34,268.60 197.14,265.57 197.14,265.57L196.78,265.16L197.31,264.15C197.80,263.24 198.08,262.24 198.13,261.21C198.33,257.03 198.19,245.62 191.86,235.81" fill="#6792CC"/>
<path d="M187.97,235.49C187.97,235.49 190.14,247.58 190.92,250.43C190.92,250.43 187.81,237.10 185.77,237.33" fill="#6792CC"/>
<path d="M156.80,226.13C156.80,226.13 160.53,225.34 164.59,233.45C164.59,233.45 162.15,236.27 162.15,238.59C162.15,238.78 162.16,238.97 162.20,239.15C162.20,239.15 164.59,232.42 167.10,231.34C167.10,231.34 160.35,224.43 156.80,226.13" fill="#6792CC"/>
<path d="M152.91,209.90C152.91,209.90 157.38,216.41 158.42,223.01L161.00,223.81L159.61,219.12C159.61,219.12 156.69,209.51 156.96,209.28" fill="#6792CC"/>
<path d="M165.76,208.26C165.63,208.14 165.54,208.00 165.49,207.84C163.55,210.17 162.19,210.63 161.24,210.59L160.16,209.51C160.16,209.51 160.23,210.59 159.58,211.01C158.95,211.41 165.76,210.23 166.90,208.85C166.95,208.79 166.99,208.72 167.02,208.66C167.05,208.58 167.09,208.46 167.13,208.30C166.70,208.64 166.19,208.61 165.76,208.26" fill="#6792CC"/>
<path d="M164.59,158.93C164.49,158.78 166.65,161.25 164.38,164.90L165.67,162.63C165.67,162.63 163.36,170.91 160.27,173.74C160.27,173.74 156.93,175.54 155.34,174.10L159.55,176.72C159.55,176.72 166.90,163.66 166.85,162.38C166.80,161.09 164.59,158.93 164.59,158.93" fill="#6792CC"/>
<path d="M176.01,138.47C176.01,138.47 175.26,144.56 173.96,146.09C173.96,146.09 175.23,144.84 175.34,143.97C175.44,143.10 174.51,151.27 170.40,154.82L170.92,152.76C170.92,152.76 169.99,155.44 168.81,154.82C167.62,154.20 166.85,153.89 166.85,153.89C166.85,153.89 169.66,155.32 170.01,157.08C170.03,157.15 170.04,157.22 170.04,157.29C170.20,159.14 177.75,148.29 176.01,138.47" fill="#6792CC"/>
<path d="M178.86,154.79C178.86,154.79 177.87,159.46 176.76,160.56C176.76,160.56 177.83,159.68 177.97,159.01C178.11,158.34 176.84,164.60 173.42,167.08L173.95,165.52C173.95,165.52 173.06,167.53 172.18,166.97C171.31,166.42 170.73,166.12 170.73,166.12C170.73,166.12 172.81,167.42 172.96,168.80C172.97,168.86 172.97,168.91 172.97,168.97C172.97,170.41 179.55,162.52 178.86,154.79" fill="#6792CC"/>
<path d="M172.97,171.43C172.31,170.03 171.07,168.95 169.61,168.45C169.20,168.31 169.02,168.96 169.43,169.10C170.73,169.54 171.81,170.53 172.39,171.77C172.47,171.93 172.71,171.97 172.85,171.89C173.02,171.79 173.05,171.59 172.97,171.43" fill="#6792CC"/>
<path d="M164.34,185.44C163.34,184.13 162.83,182.35 161.16,181.72C160.99,181.65 160.79,181.79 160.75,181.95C160.70,182.14 160.81,182.30 160.98,182.36C161.63,182.61 162.11,183.16 162.48,183.72C162.92,184.40 163.27,185.13 163.76,185.78C163.87,185.92 164.05,186.00 164.22,185.90C164.36,185.82 164.45,185.58 164.34,185.44" fill="#6792CC"/>
<path d="M163.94,296.31C163.94,296.31 169.06,299.35 167.57,302.07C167.57,302.07 167.32,302.69 166.65,302.38C166.65,302.38 167.83,302.84 166.90,304.59C165.98,306.34 160.84,317.29 160.84,317.29L168.52,302.69C168.52,302.69 170.49,300.17 163.94,296.31" fill="#6792CC"/>
<path d="M152.92,291.84C152.92,291.84 152.78,290.06 154.16,289.94C156.39,288.45 159.88,289.28 162.22,290.07C162.56,290.19 162.89,290.32 163.22,290.45C162.48,289.86 162.00,289.48 162.00,289.48L154.49,288.29L152.56,289.99L149.99,301.15L152.87,292.65C152.87,292.65 153.84,292.35 153.74,293.23C153.64,294.10 151.87,299.86 151.87,299.86L154.26,292.60C154.26,292.60 158.58,293.13 159.14,294.77C159.71,296.42 150.71,316.83 150.71,316.83C150.71,316.83 159.50,297.70 159.50,295.85C159.50,294.00 160.37,293.07 152.92,291.84" fill="#6792CC"/>
<path d="M179.21,189.11C179.21,189.11 183.64,205.39 181.79,206.70L180.08,206.47L181.25,205.27L179.21,204.31L180.88,204.15C180.88,204.15 182.10,201.07 179.21,189.11" fill="#6792CC"/>
<path d="M176.65,203.95C175.55,203.71 174.38,203.79 173.27,203.89C172.13,203.99 171.00,204.18 169.89,204.46C169.47,204.57 169.65,205.22 170.07,205.11C171.12,204.85 172.19,204.66 173.27,204.56C174.31,204.47 175.44,204.37 176.47,204.60C176.89,204.69 177.07,204.04 176.65,203.95" fill="#6792CC"/>
<path d="M168.83,247.34L168.76,245.42L168.69,243.69L168.44,237.39C168.44,237.39 173.46,238.68 174.85,239.15C176.24,239.63 170.07,237.98 169.76,239.15C169.76,239.15 168.68,240.79 168.83,242.37" fill="#6792CC"/>
<path d="M178.94,211.09C179.19,210.81 180.17,209.90 180.17,209.90C180.17,209.90 181.51,210.60 181.35,211.48C181.20,212.35 181.61,212.71 181.61,212.71C181.61,212.71 185.04,226.90 185.76,228.39C185.76,228.39 184.85,228.39 184.64,227.57C184.44,226.75 184.69,229.22 184.85,229.32C185.00,229.42 185.32,230.35 185.32,230.35C185.32,230.35 185.62,230.79 184.90,231.34C184.18,231.89 186.85,231.12 187.11,229.47C187.37,227.83 182.82,221.40 182.85,214.46L182.85,210.35L182.24,209.90C182.24,209.90 181.63,208.78 180.88,209.28" fill="#6792CC"/>
</svg>