<svg xmlns="http://www.w3.org/2000/svg" viewBox="36.09 65.47 335.96 372.60" role="img" aria-label="BioPractor">
<path d="M204.08,436.07C204.08,436.07 370.06,414.76 368.79,121.54L349.61,121.50L349.01,97.88L274.27,97.89L254.55,67.49L204.08,67.47" fill="#1C2B57"/>
<path d="M204.08,436.07C204.08,436.07 38.09,414.76 39.37,121.54L58.54,121.50L59.14,97.88L133.88,97.89L153.61,67.49L204.08,67.47" fill="#1C2B57"/>
<path d="M178.66,422.87C142.66,404.43 116.52,370.28 99.43,334.23C91.48,317.46 85.14,300.35 80.02,282.54C77.20,272.71 74.96,263.15 72.77,253.15C68.96,235.80 66.34,218.52 64.61,200.88L63.40,188.61L63.04,183.49L62.70,179.05L62.35,172.90L61.99,166.39L61.71,157.84C61.52,152.10 61.11,146.54 61.46,140.77C61.57,139.01 61.24,137.35 61.24,135.63L61.25,123.32C61.26,119.15 61.37,115.20 61.32,111.11C61.28,107.66 61.71,104.30 61.21,101.02L83.01,101.08L135.87,101.03L154.98,70.75L252.99,70.71L272.18,101.04L284.75,101.09L346.94,101.01L346.87,142.08L346.52,147.23L346.31,161.69C345.29,185.88 343.05,209.81 339.03,233.75C336.31,249.99 332.65,265.87 328.14,281.66C322.56,301.19 315.47,320.03 306.40,338.17C293.42,364.14 276.41,388.30 253.82,406.68C239.38,418.42 222.12,427.97 204.01,432.63C195.13,430.41 186.88,427.08 178.66,422.87" fill="#FEFDFD"/>
<path d="M176.78,129.88C176.78,129.88 181.40,133.12 180.94,140.06C180.94,140.06 188.81,107.67 208.55,78.98C208.55,78.98 188.81,101.19 176.78,129.88" fill="#539040"/>
<path d="M233.59,162.68C219.85,146.65 208.62,127.76 207.82,126.41C207.82,126.41 212.20,140.27 228.24,162.27C244.28,184.28 247.78,208.25 243.67,226.09C239.55,243.92 215.70,267.57 215.70,267.57C220.02,257.49 219.22,241.02 218.99,235.49C218.81,231.22 222.75,224.98 225.38,221.76C226.20,220.75 227.14,219.86 228.11,219.00C233.37,214.32 234.75,204.05 233.59,207.52C232.36,211.22 229.22,214.24 226.60,216.98C225.39,218.24 217.59,229.89 217.55,229.94L215.22,215.58C214.78,212.88 214.90,210.12 215.67,207.51C216.49,204.73 218.10,201.25 221.25,197.65C228.45,189.42 228.04,182.84 227.63,185.51C227.52,186.18 227.30,186.85 227.04,187.48C226.32,189.13 225.21,190.58 223.86,191.77C217.94,196.98 214.46,204.85 214.46,204.85C213.59,200.86 213.79,194.20 214.37,187.47C214.10,187.32 213.89,187.04 213.87,186.64C213.71,183.96 213.61,181.26 213.73,178.57C210.50,194.33 211.08,207.93 211.69,214.51C211.90,216.72 212.29,218.91 212.84,221.06C214.89,229.12 219.19,255.70 208.91,272.30C199.93,286.80 196.31,300.55 194.98,307.05C198.54,294.08 214.67,275.59 214.67,275.59C236.47,255.44 240.79,248.45 248.19,230.55C255.60,212.66 247.64,179.08 233.59,162.68" fill="#539040"/>
</svg>